<svg width="50" height="50" viewBox="0 0 50 50" fill="none" xmlns="http://www.w3.org/2000/svg">
<g clip-path="url(#clip0_5_17)">
<path d="M31.1945 4.6585H32.6031C34.3848 4.6585 35.829 3.21426 35.829 1.43262V0.732422H28.4726C27.6719 0.732422 26.9583 1.2373 26.6918 1.99229L22.0004 15.2826H34.9448L31.1945 4.6585Z" fill="#8993DA"/>
<path d="M22.0003 15.2827L20.8457 18.5536H36.0994L34.9447 15.2827H22.0003Z" fill="#F9F48E"/>
<path d="M36.5601 22.7703H35.3807L35.2681 24.2985L36.2962 27.0334C37.3302 26.6243 38.0616 25.6156 38.0616 24.4361V24.2719C38.0616 23.4426 37.3894 22.7703 36.5601 22.7703Z" fill="#EAAC9D"/>
<path d="M20.6488 27.0334L21.6769 24.2985L21.5643 22.7703H20.385C19.5557 22.7703 18.8834 23.4426 18.8834 24.2719V24.4361C18.8834 25.6157 19.6148 26.6243 20.6488 27.0334Z" fill="#EAAC9D"/>
<path d="M34.7167 28.9117C33.8351 27.4541 32.2555 26.5636 30.5519 26.5636H26.3932C24.6896 26.5636 23.1101 27.4542 22.2284 28.9118L21.9312 29.4032H25.4897C26.4973 29.4032 27.5003 29.2693 28.4726 29.005C29.4448 29.2693 30.4478 29.4032 31.4554 29.4032H35.0139L34.7167 28.9117Z" fill="#F1F1F4"/>
<path d="M31.4554 29.4032C30.4479 29.4032 29.4448 29.2693 28.4726 29.005C27.5003 29.2693 26.4973 29.4032 25.4898 29.4032H23.3993L24.3153 32.1179C24.5427 32.7915 25.3049 33.1184 25.9495 32.8185L27.498 32.0983C28.1159 31.8109 28.8292 31.8109 29.4472 32.0983L30.9956 32.8185C31.6403 33.1183 32.4025 32.7915 32.6298 32.1179L33.5457 29.4032H31.4554Z" fill="#FFCBBE"/>
<path d="M21.5645 22.7703L21.677 24.2985L22.9296 28.011C23.8332 27.0959 25.0761 26.5636 26.3932 26.5636H30.552C31.8689 26.5636 33.1119 27.0959 34.0155 28.011L35.2682 24.2985L35.3808 22.7703H21.5645Z" fill="#FFCBBE"/>
<path d="M37.2177 29.4843L35.2682 24.2985L34.0155 28.011C34.2807 28.2795 34.5167 28.581 34.7167 28.9117L35.0139 29.4031H33.5458L32.6299 32.1178C32.4025 32.7915 31.6403 33.1183 30.9957 32.8184L29.4473 32.0982C28.8293 31.8108 28.116 31.8108 27.498 32.0982L25.9496 32.8184C25.3049 33.1182 24.5427 32.7914 24.3154 32.1178L23.3995 29.4031H21.9314L22.2286 28.9117C22.4286 28.581 22.6646 28.2795 22.9298 28.011L21.6771 24.2985L19.7276 29.4843C19.2905 30.6471 19.4297 31.9482 20.1028 32.9922L28.4727 45.9741L36.8427 32.9922C37.5156 31.9482 37.6548 30.6471 37.2177 29.4843Z" fill="#DFDDE2"/>
<path d="M37.2177 29.4843L35.2682 24.2985L34.2298 27.3762L34.2881 27.5312C34.4216 27.8863 34.5013 28.2543 34.5285 28.624C34.5943 28.7172 34.6572 28.8132 34.7168 28.9117L35.014 29.4031H34.5082C34.4356 29.9784 34.2356 30.5383 33.9129 31.039L26.378 42.7256L28.4726 45.9741L36.8425 32.9922C37.5156 31.9482 37.6548 30.6471 37.2177 29.4843V29.4843Z" fill="#C6C1C8"/>
<path d="M12.8574 28.3922H9.49395C8.85381 28.3922 8.33496 28.9112 8.33496 29.5512C8.33496 30.1913 8.85391 30.7102 9.49395 30.7102H12.8574C13.4976 30.7102 14.0164 30.1912 14.0164 29.5512C14.0164 28.9112 13.4976 28.3922 12.8574 28.3922Z" fill="#F9F48E"/>
<path d="M9.84024 30.7103H12.5111V49.2676H9.84024V30.7103Z" fill="#E2BCAF"/>
<path d="M11.1757 18.8447C8.48945 18.8447 6.31181 21.0224 6.31181 23.7086C6.31181 25.9387 7.81269 27.8182 9.85937 28.3922H12.492C14.5387 27.8182 16.0395 25.9387 16.0395 23.7086C16.0395 21.0224 13.8619 18.8447 11.1757 18.8447V18.8447Z" fill="#D3EFFB"/>
<path d="M12.2256 18.9584C12.7827 19.7496 13.11 20.7143 13.11 21.7554C13.11 21.8174 13.1088 21.8791 13.1065 21.9404C13.012 24.4669 10.8768 26.439 8.34853 26.439H8.15077C7.77988 26.439 7.41777 26.3966 7.06943 26.3164C7.70458 27.3143 8.69345 28.0651 9.85947 28.3922H12.4921C14.5388 27.8181 16.0396 25.9386 16.0396 23.7086C16.0395 21.3828 14.4071 19.4384 12.2256 18.9584V18.9584Z" fill="#B1E4F9"/>
<path d="M15.9491 22.7703H42.3185L36.0994 18.5536H20.8457L15.7374 22.0173C15.8272 22.2597 15.8984 22.5113 15.9491 22.7703V22.7703Z" fill="#8993DA"/>
<path d="M33.4751 17.4697L34.7745 18.3508C34.8652 18.4123 34.9448 18.4805 35.0139 18.5537H36.0994L34.9448 15.2827H31.7307C32.0767 16.1704 32.6845 16.9336 33.4751 17.4697Z" fill="#F6E738"/>
<path d="M36.0994 18.5536H35.0139C35.7826 19.3688 35.2374 20.8172 34.0172 20.8172H17.5072L15.7373 22.0172C15.8272 22.2596 15.8984 22.5113 15.949 22.7703H42.3184L36.0994 18.5536Z" fill="#707DD3"/>
<path d="M31.6703 0.732422C31.1813 1.8917 30.0341 2.70537 28.6968 2.70537C28.0092 2.70537 27.5282 3.38525 27.757 4.03359C27.757 4.03359 31.7121 15.2354 31.7305 15.2826H34.9446L31.1944 4.6585H32.603C34.3847 4.6585 35.8289 3.21426 35.8289 1.43262V0.732422H31.6703Z" fill="#707DD3"/>
<path d="M43.809 40.1399C43.3173 37.4422 40.9672 35.4816 38.2249 35.4816H35.2374L28.4725 45.9741L21.7075 35.4816H18.72C15.9778 35.4816 13.6276 37.4421 13.1359 40.1399L12.511 43.5684V49.2677H45.4727L43.809 40.1399Z" fill="#8993DA"/>
<path d="M43.809 40.1399C43.3408 37.571 41.1874 35.6706 38.615 35.495C39.2595 36.2406 39.7156 37.1603 39.9027 38.1868L40.5049 41.4906C41.0575 44.5225 38.7285 47.3144 35.6466 47.3144H12.5111V49.2676H45.4727L43.809 40.1399Z" fill="#707DD3"/>
<path d="M8.03984 28.343C7.12646 29.4404 7.72109 31.1142 9.10781 31.403V32.2896C9.10781 32.6941 9.43564 33.0221 9.84023 33.0221C10.2448 33.0221 10.5727 32.6941 10.5727 32.2896V31.4427H11.7787V48.5352H10.5727V35.7076C10.5727 35.3031 10.2448 34.9752 9.84023 34.9752C9.43564 34.9752 9.10781 35.3031 9.10781 35.7076V49.2676C9.10781 49.6721 9.43564 50 9.84023 50H45.4727C45.9283 50 46.2753 49.5869 46.1933 49.1362L44.5296 40.0086C43.9741 36.961 41.3227 34.7492 38.2249 34.7492H36.581L37.4579 33.3892C38.253 32.1561 38.4194 30.5999 37.9031 29.2266L37.2094 27.3811C38.1901 26.7388 38.794 25.6459 38.794 24.4361C38.794 24.137 38.7945 23.875 38.6576 23.5027H42.3184C42.64 23.5027 42.9241 23.2929 43.0186 22.9854C43.113 22.6778 42.9957 22.3446 42.7294 22.1642L36.7098 18.0826C35.1419 13.6413 33.7963 9.8292 32.2296 5.39092H32.6029C34.7855 5.39092 36.5612 3.61523 36.5612 1.43262V0.732422C36.5612 0.32793 36.2334 0 35.8288 0H28.4724C27.3634 0 26.3702 0.702637 26.0009 1.74844C23.5377 8.72637 22.9474 10.3987 20.2351 18.0826L16.033 20.9317C15.067 19.2485 13.2515 18.1123 11.1756 18.1123C8.08974 18.1123 5.57919 20.6229 5.57919 23.7086C5.57939 25.5953 6.53642 27.3207 8.03984 28.343V28.343ZM9.49404 29.9778C9.25888 29.9778 9.06747 29.7865 9.06747 29.5513C9.06747 29.316 9.25888 29.1247 9.49404 29.1247H12.8574C13.0926 29.1247 13.284 29.316 13.284 29.5513C13.284 29.7865 13.0926 29.9778 12.8574 29.9778C11.7241 29.9778 10.4713 29.9778 9.49404 29.9778V29.9778ZM36.2269 32.5953C35.9652 33.0011 34.1602 35.8007 33.6406 36.6067C33.4215 36.9467 33.5194 37.4 33.8593 37.6192C34.199 37.838 34.6521 37.741 34.8718 37.4005L35.6367 36.214H38.2249C40.6145 36.214 42.6599 37.9203 43.0884 40.2712L44.5947 48.5352H39.3786L38.6181 43.7378C38.5549 43.3384 38.1808 43.0656 37.78 43.1291C37.3805 43.1925 37.108 43.5677 37.1714 43.9672L37.8955 48.5352H19.0495L19.7737 43.9672C19.837 43.5677 19.5645 43.1925 19.1651 43.1291C18.7649 43.066 18.3903 43.3384 18.327 43.7378L17.5665 48.5352H13.2435V43.6349L13.8566 40.2713C14.2852 37.9204 16.3305 36.2141 18.7201 36.2141H21.3083C28.2109 46.9201 27.8759 46.4329 28.0117 46.5435C28.3227 46.7952 28.7767 46.7495 29.0324 46.4463C29.0772 46.3931 28.8108 46.801 32.947 40.3858C33.1661 40.0459 33.0682 39.5926 32.7283 39.3734C32.3884 39.1543 31.9351 39.2521 31.7158 39.5921L30.3419 41.723L31.9574 35.5487C32.0599 35.1574 31.8255 34.7572 31.4343 34.6548C31.0429 34.5524 30.6427 34.7866 30.5403 35.1779L28.4725 43.0808L26.4046 35.1779C26.3022 34.7866 25.9024 34.5521 25.5106 34.6548C25.1193 34.7572 24.8851 35.1574 24.9875 35.5487L26.603 41.723C26.1418 41.0076 22.4846 35.3352 20.7182 32.5954C20.1732 31.7501 20.0592 30.6835 20.4131 29.7421L21.6397 26.4791L22.0985 27.839C21.7656 28.2353 21.6146 28.5112 21.3045 29.0241C21.0102 29.5109 21.3606 30.1355 21.9312 30.1355H22.8733L23.6212 32.352C23.9894 33.4434 25.2244 33.9634 26.2583 33.4825L27.8066 32.7623C28.2298 32.5654 28.715 32.5655 29.1382 32.7623L30.6866 33.4825C31.7245 33.9653 32.9564 33.4402 33.3237 32.352L34.0715 30.1355H35.0137C35.5827 30.1355 35.9355 29.5122 35.6404 29.0241C35.3372 28.5228 35.1774 28.2331 34.8464 27.8391L35.3052 26.4792L36.5318 29.7422C36.8859 30.6835 36.7719 31.7501 36.2269 32.5953V32.5953ZM19.6158 24.4361V24.2719C19.6158 23.8478 19.9608 23.5027 20.385 23.5027H20.884L20.9347 24.1915L20.2741 25.9485C19.8609 25.5671 19.6158 25.0253 19.6158 24.4361V24.4361ZM30.5519 27.296C31.73 27.296 32.8526 27.8089 33.6293 28.6707C32.8044 28.6707 31.9129 28.6707 31.4554 28.6707C30.5131 28.6707 29.574 28.5454 28.6645 28.2982C28.5391 28.2641 28.4061 28.264 28.2804 28.2982C27.3709 28.5454 26.432 28.6707 25.4896 28.6707C25.0405 28.6707 24.1424 28.6707 23.3157 28.6707C24.0924 27.8088 25.215 27.296 26.3931 27.296H30.5519ZM25.4896 30.1355C26.4956 30.1355 27.4979 30.0101 28.4725 29.7623C30.1406 30.1863 31.286 30.1355 32.5256 30.1355L31.9357 31.8836C31.848 32.1437 31.5539 32.2703 31.3044 32.1543L29.7559 31.434C28.9402 31.0547 28.0047 31.0547 27.189 31.434L25.6405 32.1542C25.3917 32.2699 25.0972 32.144 25.0092 31.8835L24.4193 30.1354H25.4896V30.1355ZM34.5445 24.1521L33.6588 26.7772C32.7501 26.1719 31.6694 25.8311 30.5519 25.8311H30.1457C30.166 25.6772 30.1603 25.7757 30.1603 23.5026H34.5923L34.5445 24.1521ZM28.6956 25.6082C28.6956 25.7306 28.5966 25.8302 28.4744 25.8312H26.3932C25.2758 25.8312 24.195 26.172 23.2863 26.7773L22.4006 24.1522L22.3527 23.5028H28.6955V25.6082H28.6956ZM37.3293 24.2719V24.4361C37.3293 25.0253 37.0842 25.567 36.6709 25.9485L36.0103 24.1915L36.0611 23.5027H36.5601C36.9843 23.5027 37.3293 23.8478 37.3293 24.2719V24.2719ZM27.3823 2.23613C27.5452 1.7748 27.9834 1.46484 28.4725 1.46484H35.0963C35.079 2.825 33.9671 3.92607 32.603 3.92607H31.7126L31.4148 3.08252C31.2803 2.70107 30.8618 2.50088 30.4805 2.63564C30.099 2.77031 29.8989 3.18867 30.0336 3.57012C30.8088 5.76621 33.0002 11.9742 33.9095 14.5502H32.8999C32.4953 14.5502 32.1675 14.8781 32.1675 15.2826C32.1675 15.6871 32.4953 16.015 32.8999 16.015H34.4266L35.0642 17.8211H21.8809L22.5185 16.015H29.4819C29.8865 16.015 30.2144 15.6871 30.2144 15.2826C30.2144 14.8781 29.8865 14.5502 29.4819 14.5502H23.0354L27.3823 2.23613ZM21.0706 19.286H35.8746L39.9332 22.0379C32.2162 22.0379 21.4164 22.0379 17.0121 22.0379L21.0706 19.286ZM18.2874 23.5027C18.147 23.8845 18.151 24.1656 18.151 24.4361C18.151 25.6459 18.7549 26.7389 19.7356 27.3811L19.0419 29.2266C18.5256 30.5998 18.692 32.156 19.487 33.3891L20.3639 34.7491H18.7201C16.4269 34.7491 14.3783 35.9614 13.2435 37.8274V31.4029C14.6304 31.1142 15.2249 29.4403 14.3115 28.3429C15.8876 27.2712 16.8392 25.4491 16.7682 23.5026H18.2874V23.5027ZM11.1757 19.5771C13.4537 19.5771 15.3071 21.4306 15.3071 23.7086C15.3071 25.5212 14.1112 27.132 12.387 27.6598H9.96435C8.24013 27.132 7.04423 25.5211 7.04423 23.7086C7.04423 21.4306 8.89755 19.5771 11.1757 19.5771V19.5771Z" fill="black"/>
<path d="M11.1757 22.0186C12.1075 22.0186 12.8657 22.7768 12.8657 23.7086C12.8657 24.1131 13.1936 24.441 13.5981 24.441C14.0027 24.441 14.3306 24.1131 14.3306 23.7086C14.3306 21.969 12.9153 20.5537 11.1757 20.5537C10.7711 20.5537 10.4433 20.8816 10.4433 21.2861C10.4433 21.6906 10.7712 22.0186 11.1757 22.0186V22.0186Z" fill="black"/>
<path d="M11.1757 16.6474C11.5803 16.6474 11.9081 16.3195 11.9081 15.915V14.306C11.9081 13.9015 11.5803 13.5736 11.1757 13.5736C10.7711 13.5736 10.4433 13.9015 10.4433 14.306V15.915C10.4433 16.3195 10.7712 16.6474 11.1757 16.6474Z" fill="black"/>
<path d="M5.14697 18.7156C5.43281 19.0017 5.89668 19.0017 6.18271 18.7156C6.46875 18.4296 6.46875 17.9658 6.18261 17.6799L5.04492 16.5422C4.75898 16.2561 4.29521 16.2562 4.00918 16.5422C3.72314 16.8282 3.72314 17.292 4.00927 17.5779L5.14697 18.7156Z" fill="black"/>
<path d="M17.2046 18.7156L18.3422 17.5779C18.6282 17.2919 18.6282 16.8281 18.3421 16.5422C18.0562 16.2561 17.5924 16.2562 17.3064 16.5422L16.1688 17.6799C15.8827 17.9659 15.8827 18.4297 16.1689 18.7156C16.4546 19.0017 16.9185 19.0017 17.2046 18.7156Z" fill="black"/>
</g>
<defs>
<clipPath id="clip0_5_17">
<rect width="50" height="50" fill="white"/>
</clipPath>
</defs>
</svg>
