<svg width="512" height="512" viewBox="0 0 512 512" fill="none" xmlns="http://www.w3.org/2000/svg">
<g clip-path="url(#clip0_1_2)">
<path d="M255.757 496.726C391.993 496.726 502.435 388.977 502.435 256.063C502.435 123.149 391.993 15.4006 255.757 15.4006C119.521 15.4006 9.07959 123.149 9.07959 256.063C9.07959 388.977 119.521 496.726 255.757 496.726Z" fill="black" stroke="white" stroke-width="25.8556"/>
<path fill-rule="evenodd" clip-rule="evenodd" d="M265.083 171.784C265.083 167.16 261.538 163.411 257.165 163.411C257.165 163.411 257.16 163.411 257.155 163.411C252.786 163.411 249.241 167.16 249.241 171.784C249.241 205.524 249.241 331.356 249.241 365.101C249.241 369.725 252.786 373.474 257.155 373.474C257.16 373.474 257.165 373.474 257.165 373.474C261.538 373.474 265.083 369.725 265.083 365.101C265.083 331.356 265.083 205.524 265.083 171.784V171.784Z" fill="white"/>
<path fill-rule="evenodd" clip-rule="evenodd" d="M233.094 331.102C228.723 331.098 225.175 334.843 225.171 339.468C225.171 339.468 225.171 339.473 225.171 339.477C225.168 344.097 228.71 347.848 233.082 347.852C245.243 347.863 268.389 347.884 280.551 347.895C284.924 347.899 288.472 344.154 288.476 339.534C288.476 339.53 288.476 339.525 288.476 339.525C288.479 334.9 284.937 331.149 280.564 331.145C268.402 331.134 245.256 331.113 233.094 331.102V331.102Z" fill="white"/>
<path fill-rule="evenodd" clip-rule="evenodd" d="M193.958 221.585C189.583 221.581 186.038 225.326 186.034 229.95C186.034 229.95 186.034 229.955 186.034 229.96C186.03 234.579 189.57 238.33 193.945 238.334C218.8 238.356 295.091 238.425 319.947 238.447C324.318 238.451 327.867 234.706 327.87 230.087C327.87 230.082 327.87 230.077 327.87 230.077C327.874 225.454 324.331 221.703 319.959 221.699C295.104 221.676 218.813 221.608 193.958 221.585V221.585Z" fill="white"/>
<path fill-rule="evenodd" clip-rule="evenodd" d="M220.064 179.264C216.969 175.998 211.955 176.004 208.866 179.277C208.866 179.277 208.863 179.28 208.86 179.284C205.774 182.554 205.779 187.855 208.875 191.121C225.924 209.11 277.042 263.045 294.092 281.034C297.187 284.3 302.2 284.294 305.286 281.024C305.29 281.02 305.293 281.017 305.293 281.017C308.382 277.744 308.377 272.443 305.281 269.177C288.232 251.188 237.114 197.253 220.064 179.264V179.264Z" fill="white"/>
<path fill-rule="evenodd" clip-rule="evenodd" d="M208.978 269.319C205.891 272.594 205.9 277.895 208.998 281.16C208.998 281.16 209.002 281.163 209.005 281.167C212.1 284.428 217.113 284.419 220.2 281.144C237.201 263.104 288.174 209.018 305.175 190.978C308.262 187.703 308.253 182.402 305.158 179.141C305.155 179.137 305.152 179.134 305.152 179.134C302.053 175.869 297.04 175.878 293.953 179.153C276.952 197.193 225.979 251.279 208.978 269.319V269.319Z" fill="white"/>
<path d="M255.851 469.752C375.888 469.752 473.198 374.816 473.198 257.706C473.198 140.596 375.888 45.6592 255.851 45.6592C135.814 45.6592 38.5049 140.596 38.5049 257.706C38.5049 374.816 135.814 469.752 255.851 469.752Z" stroke="#F0827D" stroke-width="14.8532"/>
</g>
<defs>
<clipPath id="clip0_1_2">
<rect width="512" height="512" fill="white"/>
</clipPath>
</defs>
</svg>
