<svg width="512" height="512" viewBox="0 0 512 512" fill="none" xmlns="http://www.w3.org/2000/svg">
<path d="M501.741 213.919L481.514 187.706L365.922 113.093C366.301 115.286 366.712 117.479 367.186 119.654C368.108 123.692 369.121 127.709 370.226 131.702C370.884 134.133 371.562 136.51 372.262 138.832C372.483 139.54 372.692 140.26 372.894 140.975C395.738 214.374 441.325 249.247 502.518 295.978C506.503 271.03 506.757 245.629 503.271 220.606L501.741 213.919Z" fill="#EF7730"/>
<path d="M277.125 319.049C167.14 269.859 98.38 170.019 94.3724 69.541C94.3323 68.5857 94.022 67.6613 93.4777 66.8751C92.9334 66.0889 92.1774 65.4732 91.2973 65.0993C90.4172 64.7255 89.4492 64.6088 88.5055 64.7628C87.5617 64.9169 86.681 65.3353 85.9655 65.9697C57.1811 91.3414 34.546 122.929 19.7737 158.342C5.00137 193.754 -1.52097 232.063 0.700402 270.369C2.92178 308.675 13.8287 345.973 32.5954 379.441C51.3621 412.908 77.4968 441.668 109.021 463.542C140.545 485.416 176.633 499.832 214.552 505.698C252.471 511.564 291.228 508.727 327.888 497.401C364.548 486.075 398.152 466.557 426.154 440.325C454.156 414.092 475.824 381.833 489.516 345.989C489.853 345.128 489.947 344.191 489.789 343.28C489.63 342.369 489.225 341.519 488.617 340.822C488.009 340.126 487.221 339.609 486.34 339.329C485.459 339.048 484.518 339.015 483.619 339.232C414.466 355.769 341.767 348.663 277.125 319.049V319.049ZM503.246 220.828C494.301 200.145 494.301 200.145 254.477 113.522C133.759 69.9076 111.332 27.8162 198.732 8.76473C202.988 7.85029 207.28 7.03699 211.608 6.32483C244.886 0.889818 278.914 2.15362 311.698 10.0421C344.481 17.9306 375.36 32.2851 402.523 52.2638C429.686 72.2425 452.586 97.4433 469.882 126.389C487.178 155.334 498.521 187.441 503.246 220.828" fill="#F9D85E"/>
<path d="M273.003 3.8407L270.089 3.58154C274.046 3.85967 277.94 4.3527 281.846 4.80149C281.151 4.71932 280.481 4.61818 279.773 4.53601C277.561 4.26421 275.323 4.05562 273.003 3.8407Z" fill="#EF7730"/>
</svg>
