<svg width="80" height="80" viewBox="0 0 80 80" fill="none" xmlns="http://www.w3.org/2000/svg">
<path d="M80 40C80 62.0914 62.0914 80 40 80C17.9086 80 0 62.0914 0 40C0 17.9086 17.9086 0 40 0C62.0914 0 80 17.9086 80 40Z" fill="white"/>
<path d="M67.9783 20.5417C67.352 18.1707 65.339 15.7998 61.7154 13.1604C58.8076 11.0578 55.7209 9.84998 53.2604 9.84998C52.7683 9.84998 52.321 9.89472 51.8736 9.98419C50.7553 10.2079 49.7711 11.0131 49.1448 12.2209C48.3843 13.6525 48.2054 15.5761 48.6974 16.7392C48.8764 17.0971 49.1001 17.5444 49.3685 17.9471C46.9975 19.3786 45.6554 19.7812 45.4765 19.8259C51.65 21.8838 56.7945 26.1783 60.0155 31.7702L60.0602 31.2334C60.1944 29.7572 60.6418 28.0572 61.268 26.3125C61.8943 26.4915 62.5206 26.581 63.1469 26.581C64.8021 26.581 66.2337 25.9099 67.1284 24.7021C68.0231 23.4942 68.3809 21.8838 67.9783 20.5417Z" fill="#5E12A0"/>
<path d="M61.5388 25.0169C65.6097 26.1353 67.265 23.0038 66.7281 20.9012C66.1466 18.7987 64.2677 16.6514 60.9573 14.2357C57.6469 11.82 54.2917 10.8358 52.1444 11.2832C49.9972 11.7305 49.3709 14.9962 49.9077 16.2488C50.1314 16.7409 50.6235 17.4566 51.2945 18.2619C50.4445 18.8434 49.6393 19.2908 48.9682 19.6934C53.0839 21.5275 56.6627 24.3906 59.3468 27.9694C59.66 26.7616 60.1073 25.6879 60.5099 24.7485C60.8231 24.7932 61.181 24.8827 61.5388 25.0169Z" fill="url(#paint0_radial_1831_48782)"/>
<path d="M38.2387 68.8588C52.0499 68.8588 63.2457 57.6629 63.2457 43.8518C63.2457 30.0407 52.0499 18.8448 38.2387 18.8448C24.4276 18.8448 13.2318 30.0407 13.2318 43.8518C13.2318 57.6629 24.4276 68.8588 38.2387 68.8588Z" fill="url(#paint1_radial_1831_48782)"/>
<path d="M64.6718 18.8421C61.2719 15.2633 58.4088 14.3238 54.9642 13.5633C52.2801 12.937 52.9959 11.4161 56.2616 11.7292C54.6958 11.1924 53.2196 11.0582 52.1459 11.2818C49.9986 11.7292 49.3723 14.9949 49.9092 16.2475C50.1328 16.7395 50.6249 17.4553 51.2959 18.2605C50.0881 19.0658 49.0592 19.6473 48.2092 20.0947C48.6118 20.2736 49.1039 20.4973 49.6855 20.8104C51.2065 21.6157 52.8617 22.9577 52.8617 22.9577C50.3565 20.8104 50.8933 19.8263 54.3379 17.4106C55.4116 16.6501 57.3799 16.7395 59.2141 17.679C61.0482 18.6184 63.1955 20.9894 63.1955 20.9894L61.1377 24.9261C61.2719 24.9708 61.4061 25.0156 61.5403 25.0603C62.8376 25.4182 63.8665 25.3287 64.6718 25.0156C65.6112 24.434 68.0717 22.4657 64.6718 18.8421Z" fill="#A082A5"/>
<path d="M54.9217 15.7123C55.8165 16.0702 56.9796 16.6965 58.4111 17.636C60.111 18.7543 61.5873 20.0069 62.5267 20.9911C60.961 23.0489 59.9321 25.8672 59.3058 27.8356C59.6189 28.2829 59.9768 28.7303 60.29 29.1776C60.6031 28.0593 61.1399 26.4041 61.8557 24.7489C62.0346 24.7936 62.2583 24.7936 62.482 24.7936C63.0188 24.7936 63.6451 24.7041 64.1372 24.3015C64.4951 24.0331 64.8977 23.541 64.853 22.6463C64.853 21.7963 64.1819 20.7227 62.7951 19.4254C61.811 18.4859 60.4689 17.457 59.1269 16.5176C55.2796 13.9677 52.5955 13.2519 51.3877 14.4598C50.5824 15.265 50.6719 16.2492 50.9403 16.9649C49.5088 17.9044 48.3009 18.5754 47.4957 19.0228C48.0325 19.2017 48.5246 19.4254 49.0614 19.649C50.493 18.8885 52.5508 17.5912 54.9217 15.7123ZM63.3767 22.1095C63.5109 22.3332 63.5556 22.5568 63.5556 22.691C63.5556 23.0937 63.4214 23.2279 63.332 23.3173C63.153 23.4515 62.7952 23.541 62.482 23.541C62.7504 23.0042 63.0636 22.5568 63.3767 22.1095ZM52.3271 15.4439C52.4613 15.3097 52.8192 15.2203 53.4007 15.3097C52.9534 15.6676 52.506 15.9808 52.0587 16.2939C52.014 15.9808 52.0587 15.6676 52.3271 15.4439Z" fill="#5E12A0"/>
<path d="M38.2426 17.3684C23.6141 17.3684 11.7593 29.2233 11.7593 43.8517C11.7593 58.4801 23.6141 70.3349 38.2426 70.3349C52.871 70.3349 64.7258 58.4801 64.7258 43.8517C64.7258 29.2233 52.8263 17.3684 38.2426 17.3684ZM38.2426 68.8587C24.4194 68.8587 13.2356 57.6749 13.2356 43.8517C13.2356 30.0285 24.4194 18.8447 38.2426 18.8447C52.0658 18.8447 63.2496 30.0285 63.2496 43.8517C63.2496 57.6749 52.021 68.8587 38.2426 68.8587Z" fill="#5E12A0"/>
<path d="M38.2387 68.8588C52.0499 68.8588 63.2457 57.6629 63.2457 43.8518C63.2457 30.0407 52.0499 18.8448 38.2387 18.8448C24.4276 18.8448 13.2318 30.0407 13.2318 43.8518C13.2318 57.6629 24.4276 68.8588 38.2387 68.8588Z" fill="url(#paint2_linear_1831_48782)"/>
<path d="M38.0528 65.8137C24.4086 63.6217 15.1484 50.7827 17.3851 37.1384C18.3693 31.0992 21.4113 25.9546 25.7059 22.2416C19.4429 25.8651 14.7905 32.1728 13.5379 39.8673C11.3459 53.5115 20.6061 66.3505 34.2056 68.5425C41.8106 69.7951 49.1471 67.4242 54.5601 62.7717C49.7734 65.5453 43.9578 66.7531 38.0528 65.8137Z" fill="#8D7291"/>
<path d="M42.2183 19.2009C35.9107 18.172 29.7819 19.6035 24.7716 22.7797C24.6821 22.8692 24.5927 22.9587 24.5927 22.9587C26.5163 21.7956 29.3346 20.7666 29.3346 20.7666C22.0875 24.9718 19.8507 29.7584 19.8507 29.7584C22.669 24.3007 30.9451 20.4535 37.4317 20.1851C43.9183 19.9167 48.1681 21.8403 53.3574 26.0007C58.5467 30.2058 61.6782 38.7949 61.365 45.5947C61.0966 52.3945 57.5178 57.8969 57.5178 57.8969C59.9782 54.7207 61.4545 52.3945 62.3939 50.0235C62.5729 49.3077 62.7518 48.592 62.8413 47.8315C65.078 34.2319 55.8626 21.3929 42.2183 19.2009Z" fill="url(#paint3_linear_1831_48782)"/>
<path d="M61.9847 43.628C61.9847 56.7355 51.3377 67.3824 38.2303 67.3824C25.1229 67.3824 14.4312 56.7355 14.4312 43.628H61.9847Z" fill="url(#paint4_linear_1831_48782)"/>
<path d="M60.1089 43.628C60.1089 56.4223 49.9987 66.8903 37.2939 67.3824H38.2333C51.3408 67.3824 61.9877 56.7355 61.9877 43.628H60.1089Z" fill="url(#paint5_linear_1831_48782)"/>
<path d="M17.7863 43.628H14.4312C14.4312 56.7355 25.0782 67.3824 38.1856 67.3824C38.7671 67.3824 39.304 67.3824 39.8408 67.3377C27.5386 66.443 17.7863 56.1539 17.7863 43.628Z" fill="url(#paint6_linear_1831_48782)"/>
<path d="M61.94 43.8499C61.94 41.1211 57.198 39.5553 50.8904 39.0185C46.3274 38.6606 41.7197 39.108 36.4409 40.7185C31.8779 42.0605 27.7623 41.8368 24.765 41.479C18.0995 40.7185 14.4312 40.629 14.4312 43.8499C14.4312 48.5024 23.915 54.318 38.1408 52.3049C45.3432 51.276 49.0562 49.1734 53.3061 47.7419C57.9138 46.2209 61.94 46.2656 61.94 43.8499Z" fill="url(#paint7_linear_1831_48782)"/>
<path d="M46.0263 32.5787C48.2501 32.5787 50.0525 30.7763 50.0525 28.5525C50.0525 26.3287 48.2501 24.5264 46.0263 24.5264C43.8025 24.5264 42.0001 26.3287 42.0001 28.5525C42.0001 30.7763 43.8025 32.5787 46.0263 32.5787Z" fill="white"/>
<path d="M52.5962 35.5737C53.5352 35.5737 54.2961 34.8128 54.2961 33.8738C54.2961 32.9348 53.5352 32.1738 52.5962 32.1738C51.6572 32.1738 50.8962 32.9348 50.8962 33.8738C50.8962 34.8128 51.6572 35.5737 52.5962 35.5737Z" fill="white"/>
<path d="M58.6821 25.328H58.5926C58.3242 25.2833 58.1452 25.0149 58.19 24.7017C58.5926 22.6439 60.2925 20.6755 60.382 20.5861C60.5609 20.3624 60.9188 20.3624 61.0978 20.5413C61.3214 20.7203 61.3214 21.0782 61.1425 21.2571C61.0978 21.3018 59.532 23.136 59.1742 24.9254C59.1294 25.1938 58.9057 25.328 58.6821 25.328Z" fill="url(#paint8_linear_1831_48782)"/>
<path d="M53.2733 9.85141C55.7785 9.85141 58.8653 11.0593 61.7283 13.1618C65.3519 15.8012 67.3649 18.1274 67.9912 20.5431C68.3491 21.9299 68.036 23.4957 67.1413 24.6588C66.2018 25.8666 64.815 26.5376 63.1598 26.5376C62.5783 26.5376 61.952 26.4482 61.2809 26.2692C60.8783 27.2981 60.5652 28.3271 60.3415 29.3112C63.0704 33.4716 64.6808 38.482 64.6808 43.8502C64.6808 58.4786 52.826 70.3334 38.1976 70.3334C23.5692 70.3334 11.7591 58.4786 11.7591 43.8502C11.7591 29.2218 23.6139 17.3669 38.2423 17.3669C41.4632 17.3669 44.55 17.9485 47.413 19.0221C47.9499 18.7537 48.6209 18.3958 49.3814 17.9485C49.113 17.5459 48.8446 17.1432 48.7104 16.7406C48.2183 15.5328 48.3972 13.6539 49.1577 12.2224C49.784 11.0593 50.7234 10.254 51.8866 9.98561C52.2892 9.89614 52.7813 9.85141 53.2733 9.85141ZM53.2733 9.09091C52.7365 9.09091 52.1997 9.13564 51.7076 9.26985C50.3656 9.583 49.2024 10.4777 48.4419 11.9092C47.592 13.5644 47.3683 15.7117 47.9499 17.0985C48.0393 17.2775 48.1288 17.5011 48.263 17.7248C47.9499 17.9037 47.6367 18.0827 47.3236 18.2169C44.371 17.188 41.329 16.6512 38.1976 16.6512C34.5293 16.6512 30.9505 17.3669 27.5953 18.7985C24.3297 20.1852 21.4219 22.1536 18.9167 24.6588C16.4115 27.1639 14.4432 30.0717 13.0564 33.3374C11.6249 36.6925 10.9091 40.2714 10.9091 43.9397C10.9091 47.6079 11.6249 51.1868 13.0564 54.5419C14.4432 57.8076 16.4115 60.7154 18.9167 63.2205C21.4219 65.7257 24.3297 67.6941 27.5953 69.0808C30.9505 70.5124 34.5293 71.2281 38.1976 71.2281C41.8659 71.2281 45.4447 70.5124 48.7998 69.0808C52.0655 67.6941 54.9733 65.7257 57.4785 63.2205C59.9836 60.7154 61.952 57.8076 63.3388 54.5419C64.7703 51.1868 65.4861 47.6079 65.4861 43.9397C65.4861 38.7056 64.0098 33.6506 61.1915 29.2665C61.3257 28.5955 61.5494 27.9244 61.773 27.2534C62.2204 27.3429 62.7125 27.3876 63.1598 27.3876C65.0387 27.3876 66.6939 26.6271 67.7676 25.1956C68.7965 23.8535 69.1991 21.9747 68.7517 20.4089C68.036 17.8143 65.9781 15.3538 62.1757 12.625C59.1784 10.3435 55.9127 9.09091 53.2733 9.09091Z" fill="white"/>
<path d="M36.5882 62.5061C37.2798 62.5061 37.8407 61.9451 37.8407 61.2535C37.8407 60.5619 37.2798 60.0009 36.5882 60.0009C35.8965 60.0009 35.3356 60.5619 35.3356 61.2535C35.3356 61.9451 35.8965 62.5061 36.5882 62.5061Z" fill="#9534E1"/>
<path d="M35.8684 62.0557C35.3763 61.5636 35.3763 60.7584 35.8684 60.2663C35.9579 60.1768 36.0473 60.1321 36.1368 60.0426C35.9579 60.0873 35.8237 60.1768 35.6895 60.311C35.1974 60.8031 35.1974 61.6083 35.6895 62.1004C36.0921 62.503 36.7184 62.5925 37.2105 62.3241C36.7631 62.503 36.2263 62.4136 35.8684 62.0557Z" fill="url(#paint9_linear_1831_48782)"/>
<path d="M37.031 60.8945C37.1791 60.8945 37.2994 60.7741 37.2994 60.626C37.2994 60.478 37.1791 60.3576 37.031 60.3576C36.8829 60.3576 36.7626 60.478 36.7626 60.626C36.7626 60.7741 36.8829 60.8945 37.031 60.8945Z" fill="#BBBBBB"/>
<path d="M43.116 61.8798C43.8076 61.8798 44.3686 61.3188 44.3686 60.6272C44.3686 59.9356 43.8076 59.3746 43.116 59.3746C42.4244 59.3746 41.8634 59.9356 41.8634 60.6272C41.8634 61.3188 42.4244 61.8798 43.116 61.8798Z" fill="#B134DD"/>
<path d="M42.3962 61.4295C41.9042 60.9374 41.9042 60.1322 42.3962 59.6401C42.4857 59.5506 42.5752 59.5059 42.6647 59.4164C42.4857 59.4611 42.3515 59.5506 42.2173 59.6848C41.7252 60.1769 41.7252 60.9821 42.2173 61.4742C42.6199 61.8768 43.2462 61.9663 43.7383 61.6979C43.291 61.8768 42.7541 61.7874 42.3962 61.4295Z" fill="url(#paint10_linear_1831_48782)"/>
<path d="M43.5589 60.2682C43.7069 60.2682 43.8273 60.1479 43.8273 59.9998C43.8273 59.8517 43.7069 59.7314 43.5589 59.7314C43.4108 59.7314 43.2904 59.8517 43.2904 59.9998C43.2904 60.1479 43.4108 60.2682 43.5589 60.2682Z" fill="#BBBBBB"/>
<path d="M39.8881 64.7869C40.407 64.7869 40.8275 64.3664 40.8275 63.8475C40.8275 63.3285 40.407 62.908 39.8881 62.908C39.3692 62.908 38.9487 63.3285 38.9487 63.8475C38.9487 64.3664 39.3692 64.7869 39.8881 64.7869Z" fill="#A034DF"/>
<path d="M39.3513 64.4299C38.9934 64.072 38.9934 63.4457 39.3513 63.0878C39.396 63.0431 39.4855 62.9983 39.5302 62.9536C39.396 62.9983 39.3065 63.0878 39.2171 63.1773C38.8592 63.5352 38.8592 64.1614 39.2171 64.5193C39.5302 64.8325 39.9776 64.8772 40.3802 64.6535C40.0223 64.7877 39.6197 64.6983 39.3513 64.4299Z" fill="url(#paint11_linear_1831_48782)"/>
<path d="M40.2055 63.5354C40.3044 63.5354 40.3845 63.4553 40.3845 63.3565C40.3845 63.2576 40.3044 63.1775 40.2055 63.1775C40.1067 63.1775 40.0266 63.2576 40.0266 63.3565C40.0266 63.4553 40.1067 63.5354 40.2055 63.5354Z" fill="#BBBBBB"/>
<path d="M45.6569 64.1152C46.1758 64.1152 46.5964 63.6947 46.5964 63.1757C46.5964 62.6568 46.1758 62.2363 45.6569 62.2363C45.138 62.2363 44.7175 62.6568 44.7175 63.1757C44.7175 63.6947 45.138 64.1152 45.6569 64.1152Z" fill="#B934DC"/>
<path d="M45.1201 63.7581C44.7622 63.4002 44.7622 62.7739 45.1201 62.416C45.1648 62.3713 45.2543 62.3266 45.299 62.2818C45.1648 62.3266 45.0754 62.4161 44.9859 62.5055C44.628 62.8634 44.628 63.4897 44.9859 63.8476C45.299 64.1607 45.7464 64.2055 46.149 63.9818C45.7911 64.116 45.3885 64.0265 45.1201 63.7581Z" fill="url(#paint12_linear_1831_48782)"/>
<path d="M45.9744 62.8637C46.0732 62.8637 46.1533 62.7836 46.1533 62.6847C46.1533 62.5858 46.0732 62.5058 45.9744 62.5058C45.8755 62.5058 45.7954 62.5858 45.7954 62.6847C45.7954 62.7836 45.8755 62.8637 45.9744 62.8637Z" fill="#BBBBBB"/>
<path d="M31.2601 62.0557C32.3969 62.0557 33.3179 61.1346 33.3179 59.9979C33.3179 58.8616 32.3969 57.9401 31.2601 57.9401C30.1239 57.9401 29.2023 58.8616 29.2023 59.9979C29.2023 61.1346 30.1239 62.0557 31.2601 62.0557Z" fill="#7734E5"/>
<path d="M30.0898 61.2976C29.2846 60.4924 29.2846 59.1951 30.0898 58.3898C30.224 58.2556 30.3582 58.1661 30.5372 58.0767C30.2688 58.1661 30.0451 58.3451 29.8214 58.524C29.0162 59.3293 29.0162 60.6266 29.8214 61.4318C30.4924 62.1028 31.5213 62.237 32.3266 61.745C31.5661 62.0581 30.6714 61.9239 30.0898 61.2976Z" fill="url(#paint13_linear_1831_48782)"/>
<path d="M31.9724 59.3736C32.2194 59.3736 32.4198 59.1732 32.4198 58.9263C32.4198 58.6794 32.2194 58.4789 31.9724 58.4789C31.7255 58.4789 31.5251 58.6794 31.5251 58.9263C31.5251 59.1732 31.7255 59.3736 31.9724 59.3736Z" fill="#BBBBBB"/>
<path d="M49.6445 57.0041C50.7813 57.0041 51.7024 56.083 51.7024 54.9463C51.7024 53.81 50.7813 52.8885 49.6445 52.8885C48.5083 52.8885 47.5867 53.81 47.5867 54.9463C47.5867 56.083 48.5083 57.0041 49.6445 57.0041Z" fill="#CE34D9"/>
<path d="M48.4287 56.2423C47.6235 55.437 47.6235 54.1397 48.4287 53.3345C48.5629 53.2003 48.6971 53.1108 48.8761 53.0213C48.6077 53.1108 48.384 53.2897 48.1603 53.4687C47.3551 54.2739 47.3551 55.5712 48.1603 56.3765C48.8313 57.0475 49.8602 57.1817 50.6655 56.6896C49.905 57.0028 49.055 56.8686 48.4287 56.2423Z" fill="url(#paint14_linear_1831_48782)"/>
<defs>
<radialGradient id="paint0_radial_1831_48782" cx="0" cy="0" r="1" gradientUnits="userSpaceOnUse" gradientTransform="translate(75.9048 32.8963) scale(89.5691 95.2607)">
<stop stop-color="#FAEDFC" stop-opacity="0.6"/>
<stop offset="0.68" stop-color="#A087C9"/>
<stop offset="1" stop-color="#10002F"/>
</radialGradient>
<radialGradient id="paint1_radial_1831_48782" cx="0" cy="0" r="1" gradientUnits="userSpaceOnUse" gradientTransform="translate(66.4834 12.4232) scale(78.2476)">
<stop stop-color="#FAEDFC" stop-opacity="0.6"/>
<stop offset="0.68" stop-color="#A087C9"/>
<stop offset="1" stop-color="#10002F"/>
</radialGradient>
<linearGradient id="paint2_linear_1831_48782" x1="33.5837" y1="79.4326" x2="46.3777" y2="0.500892" gradientUnits="userSpaceOnUse">
<stop stop-color="#81FFFF" stop-opacity="0.6"/>
<stop offset="0.62" stop-color="white" stop-opacity="0"/>
<stop offset="1" stop-color="white" stop-opacity="0"/>
</linearGradient>
<linearGradient id="paint3_linear_1831_48782" x1="66.492" y1="16.3906" x2="24.7066" y2="50.9253" gradientUnits="userSpaceOnUse">
<stop stop-color="white" stop-opacity="0.6"/>
<stop offset="0.29" stop-color="white" stop-opacity="0.6"/>
<stop offset="0.78" stop-color="white" stop-opacity="0"/>
<stop offset="1" stop-color="white" stop-opacity="0"/>
</linearGradient>
<linearGradient id="paint4_linear_1831_48782" x1="0.0338815" y1="39.9533" x2="79.9804" y2="39.9533" gradientUnits="userSpaceOnUse">
<stop stop-color="#0002E9"/>
<stop offset="1" stop-color="#FF00C7"/>
</linearGradient>
<linearGradient id="paint5_linear_1831_48782" x1="87.2507" y1="7.01997" x2="0.394714" y2="85.9811" gradientUnits="userSpaceOnUse">
<stop stop-color="white" stop-opacity="0.6"/>
<stop offset="0.29" stop-color="white" stop-opacity="0.6"/>
<stop offset="0.78" stop-color="white" stop-opacity="0"/>
<stop offset="1" stop-color="white" stop-opacity="0"/>
</linearGradient>
<linearGradient id="paint6_linear_1831_48782" x1="0.0634085" y1="39.9533" x2="80.1086" y2="39.9533" gradientUnits="userSpaceOnUse">
<stop stop-color="#000292" stop-opacity="0.7"/>
<stop offset="1" stop-color="#7D00C7" stop-opacity="0.7"/>
</linearGradient>
<linearGradient id="paint7_linear_1831_48782" x1="0.0876234" y1="40.0841" x2="80.0025" y2="40.0841" gradientUnits="userSpaceOnUse">
<stop stop-color="#000292"/>
<stop offset="1" stop-color="#BE00C7"/>
</linearGradient>
<linearGradient id="paint8_linear_1831_48782" x1="77.3749" y1="-0.716789" x2="35.5495" y2="107.471" gradientUnits="userSpaceOnUse">
<stop stop-color="white" stop-opacity="0.6"/>
<stop offset="0.29" stop-color="white" stop-opacity="0.6"/>
<stop offset="0.78" stop-color="white" stop-opacity="0"/>
<stop offset="1" stop-color="white" stop-opacity="0"/>
</linearGradient>
<linearGradient id="paint9_linear_1831_48782" x1="-0.0530178" y1="40.9482" x2="80.0587" y2="40.9482" gradientUnits="userSpaceOnUse">
<stop stop-color="white" stop-opacity="0.6"/>
<stop offset="0.29" stop-color="white" stop-opacity="0.6"/>
<stop offset="0.78" stop-color="white" stop-opacity="0"/>
<stop offset="1" stop-color="white" stop-opacity="0"/>
</linearGradient>
<linearGradient id="paint10_linear_1831_48782" x1="-0.246154" y1="40.669" x2="79.8656" y2="40.669" gradientUnits="userSpaceOnUse">
<stop stop-color="white" stop-opacity="0.6"/>
<stop offset="0.29" stop-color="white" stop-opacity="0.6"/>
<stop offset="0.78" stop-color="white" stop-opacity="0"/>
<stop offset="1" stop-color="white" stop-opacity="0"/>
</linearGradient>
<linearGradient id="paint11_linear_1831_48782" x1="-0.3275" y1="39.3726" x2="79.08" y2="39.3726" gradientUnits="userSpaceOnUse">
<stop stop-color="white" stop-opacity="0.6"/>
<stop offset="0.29" stop-color="white" stop-opacity="0.6"/>
<stop offset="0.78" stop-color="white" stop-opacity="0"/>
<stop offset="1" stop-color="white" stop-opacity="0"/>
</linearGradient>
<linearGradient id="paint12_linear_1831_48782" x1="-1.4075" y1="39.2948" x2="78" y2="39.2948" gradientUnits="userSpaceOnUse">
<stop stop-color="white" stop-opacity="0.6"/>
<stop offset="0.29" stop-color="white" stop-opacity="0.6"/>
<stop offset="0.78" stop-color="white" stop-opacity="0"/>
<stop offset="1" stop-color="white" stop-opacity="0"/>
</linearGradient>
<linearGradient id="paint13_linear_1831_48782" x1="-0.528345" y1="39.8787" x2="79.0043" y2="39.8787" gradientUnits="userSpaceOnUse">
<stop stop-color="white" stop-opacity="0.6"/>
<stop offset="0.29" stop-color="white" stop-opacity="0.6"/>
<stop offset="0.78" stop-color="white" stop-opacity="0"/>
<stop offset="1" stop-color="white" stop-opacity="0"/>
</linearGradient>
<linearGradient id="paint14_linear_1831_48782" x1="-0.087482" y1="39.8516" x2="79.4452" y2="39.8516" gradientUnits="userSpaceOnUse">
<stop stop-color="white" stop-opacity="0.6"/>
<stop offset="0.29" stop-color="white" stop-opacity="0.6"/>
<stop offset="0.78" stop-color="white" stop-opacity="0"/>
<stop offset="1" stop-color="white" stop-opacity="0"/>
</linearGradient>
</defs>
</svg>
