<svg width="512" height="512" viewBox="0 0 512 512" fill="none" xmlns="http://www.w3.org/2000/svg">
<g clip-path="url(#clip0_1_18)">
<path d="M256 512C397.385 512 512 397.385 512 256C512 114.615 397.385 0 256 0C114.615 0 0 114.615 0 256C0 397.385 114.615 512 256 512Z" fill="white"/>
<path d="M345.496 133.204H174.83V170.667H345.496V133.204Z" fill="#E50913"/>
<path d="M348.762 265.875C348.762 279.078 345.732 291.199 339.671 302.239C333.61 313.062 324.303 321.828 311.748 328.538C299.194 335.248 283.609 338.604 264.993 338.604H230.578V420.424H175.056V192.496H264.993C283.176 192.496 298.544 195.635 311.098 201.912C323.653 208.189 333.068 216.847 339.346 227.887C345.623 238.925 348.762 251.589 348.762 265.875ZM260.773 294.447C271.379 294.447 279.28 291.958 284.474 286.979C289.669 282 292.267 274.966 292.267 265.875C292.267 256.783 289.669 249.748 284.474 244.77C279.28 239.792 271.379 237.303 260.773 237.303H230.578V294.447H260.773Z" fill="black"/>
</g>
<defs>
<clipPath id="clip0_1_18">
<rect width="512" height="512" fill="white"/>
</clipPath>
</defs>
</svg>
